<?xml version="1.0" encoding="UTF-8"?>
<svg xmlns="http://www.w3.org/2000/svg" xmlns:xlink="http://www.w3.org/1999/xlink" width="18px" height="16px" viewBox="0 0 18 16" version="1.1">
<g id="surface1">
<path style=" stroke:none;fill-rule:nonzero;fill:rgb(0%,0%,0%);fill-opacity:1;" d="M 8.644531 2.308594 C 8.753906 2 9.246094 2 9.355469 2.308594 L 10.601562 5.710938 C 10.648438 5.847656 10.792969 5.941406 10.957031 5.941406 L 14.980469 5.941406 C 15.34375 5.941406 15.492188 6.351562 15.199219 6.542969 L 11.945312 8.644531 C 11.8125 8.730469 11.757812 8.878906 11.808594 9.015625 L 13.050781 12.417969 C 13.164062 12.726562 12.769531 12.980469 12.476562 12.789062 L 9.21875 10.6875 C 9.089844 10.605469 8.910156 10.605469 8.78125 10.6875 L 5.523438 12.789062 C 5.230469 12.980469 4.835938 12.726562 4.949219 12.417969 L 6.191406 9.015625 C 6.242188 8.878906 6.1875 8.730469 6.054688 8.644531 L 2.800781 6.542969 C 2.507812 6.351562 2.65625 5.941406 3.019531 5.941406 L 7.042969 5.941406 C 7.207031 5.941406 7.351562 5.847656 7.398438 5.710938 Z M 8.644531 2.308594 "/>
</g>
</svg>
